<?xml version="1.0" standalone="no"?>
<!DOCTYPE svg PUBLIC "-//W3C//DTD SVG 20010904//EN"
 "http://www.w3.org/TR/2001/REC-SVG-20010904/DTD/svg10.dtd">
<svg version="1.0" xmlns="http://www.w3.org/2000/svg"
 width="750.000000pt" height="750.000000pt" viewBox="0 0 750.000000 750.000000"
 preserveAspectRatio="xMidYMid meet">
<metadata>
Created by potrace 1.11, written by Peter Selinger 2001-2013
</metadata>
<g transform="translate(0.000000,750.000000) scale(0.100000,-0.100000)"
fill="#000000" stroke="none">
<path d="M2700 6938 c-29 -57 -56 -107 -60 -113 -4 -5 -34 -62 -67 -125 -148
-283 -178 -339 -213 -405 -62 -115 -114 -214 -175 -330 -32 -60 -74 -141 -95
-180 -20 -38 -63 -119 -95 -180 -32 -60 -75 -141 -95 -180 -167 -315 -278
-525 -461 -872 -28 -54 -68 -129 -89 -168 -21 -38 -61 -115 -90 -170 -29 -55
-70 -131 -90 -170 -21 -38 -62 -117 -93 -175 -30 -58 -74 -141 -97 -185 -92
-173 -134 -254 -183 -345 -27 -52 -69 -131 -92 -175 -75 -142 -141 -267 -209
-394 -36 -69 -66 -128 -66 -133 0 -4 -4 -8 -10 -8 -5 0 -10 -6 -10 -12 0 -14
-1 -15 -75 -153 -67 -125 -114 -214 -172 -325 -28 -52 -74 -139 -102 -192 -28
-53 -51 -101 -51 -105 0 -8 54 -65 255 -275 50 -52 169 -177 265 -278 96 -100
211 -221 256 -266 44 -46 80 -84 79 -84 -1 0 28 -31 64 -68 36 -37 139 -144
229 -238 l162 -171 2433 0 2432 0 55 57 c30 31 129 134 220 230 183 191 187
196 417 436 88 93 187 197 220 230 32 34 132 139 223 234 91 95 169 179 173
187 5 8 4 19 -1 26 -5 7 -37 64 -70 128 -33 63 -75 144 -95 180 -37 69 -193
363 -290 549 -33 63 -70 133 -82 155 -12 22 -60 112 -105 200 -46 88 -86 165
-90 170 -4 6 -34 62 -67 125 -132 252 -179 341 -256 485 -134 252 -162 306
-217 410 -88 168 -151 287 -190 360 -21 39 -61 115 -90 170 -29 55 -65 123
-80 150 -15 28 -58 109 -95 180 -37 72 -82 157 -100 190 -18 33 -57 107 -88
165 -127 242 -152 290 -200 380 -27 52 -67 127 -87 165 -51 96 -123 230 -186
350 -29 55 -81 154 -116 220 -35 66 -101 193 -148 282 l-85 163 -1001 0 -1001
0 -53 -102z"/>
</g>
</svg>
